<svg width="3452" height="1552" viewBox="0 0 3452 1552" fill="none" xmlns="http://www.w3.org/2000/svg">
<path d="M3093.98 1411H3298L3212.02 1552H3008L3093.98 1411Z" fill="#8DFF79"/>
<circle cx="659" cy="1411" r="100" fill="#4831D4"/>
<rect x="1398" y="95.0593" width="206" height="206" transform="rotate(-25 1398 95.0593)" fill="#FF0F0F"/>
<path fill-rule="evenodd" clip-rule="evenodd" d="M2001.98 1079.04L2079.88 1024.5C2035.21 960.711 1947.29 945.209 1883.5 989.874C1819.71 1034.54 1804.21 1122.46 1848.87 1186.25L1926.77 1131.71C1912.23 1110.94 1917.27 1082.31 1938.04 1067.77C1958.81 1053.23 1987.44 1058.27 2001.98 1079.04Z" fill="#FFE018"/>
<path fill-rule="evenodd" clip-rule="evenodd" d="M3308.48 61.1245L3235.63 -5.85914e-05C3185.58 59.6534 3193.36 148.59 3253.01 198.645C3312.67 248.701 3401.6 240.919 3451.66 181.266L3378.81 120.141C3362.51 139.564 3333.56 142.097 3314.14 125.8C3294.71 109.503 3292.18 80.5468 3308.48 61.1245Z" fill="#16FFEC"/>
</svg>
