<svg width="3454" height="1921" viewBox="0 0 3454 1921" fill="none" xmlns="http://www.w3.org/2000/svg">
<path fill-rule="evenodd" clip-rule="evenodd" d="M2347.93 473.903L2380.45 563.261C2450.66 537.708 2485.98 457.672 2459.34 384.497C2432.71 311.321 2354.21 272.715 2284 298.268L2316.52 387.626C2339.38 379.306 2364.94 391.876 2373.61 415.701C2382.28 439.526 2370.78 465.583 2347.93 473.903Z" fill="#8DFF79"/>
<path fill-rule="evenodd" clip-rule="evenodd" d="M346.872 1740.63L325.146 1703L242.764 1750.56L160.382 1798.13L78.0001 1845.69L99.726 1883.32L121.452 1920.95L203.834 1873.39L182.108 1835.76L264.49 1788.19L346.872 1740.63Z" fill="#FFE018"/>
<path fill-rule="evenodd" clip-rule="evenodd" d="M32.2967 22.6144L0 45.2288L58.9851 129.468L117.97 213.708L150.267 191.093L209.252 275.333L241.549 252.718L182.564 168.479L123.579 84.2394L91.2818 106.854L32.2967 22.6144Z" fill="#FF0F0F"/>
<path fill-rule="evenodd" clip-rule="evenodd" d="M3242.12 627.875L3331.24 595.438L3347.88 641.135L3437 608.697L3453.63 654.394L3364.51 686.832L3275.39 719.269L3186.26 751.707L3169.63 706.01L3258.75 673.572L3242.12 627.875Z" fill="#FF76A4"/>
<path d="M1662.9 1087C1647.02 1104.04 1642.71 1130.57 1650.92 1160.75C1659.14 1190.94 1679.21 1222.31 1706.72 1247.96C1734.23 1273.61 1766.92 1291.44 1797.61 1297.54C1828.29 1303.63 1854.46 1297.48 1870.34 1280.44L1766.62 1183.72L1662.9 1087Z" fill="#16FFEC"/>
</svg>
