<svg width="2282" height="1388" viewBox="0 0 2282 1388" fill="none" xmlns="http://www.w3.org/2000/svg">
<g filter="url(#filter0_d_5_1003)">
<path d="M2228.26 1038C2186.14 1038 2152 1055.02 2152 1076.01C2152 1097 2186.14 1114.02 2228.26 1114.02C2251.87 1114.02 2271 1106.82 2271 1097.93C2271 1089.04 2251.87 1081.84 2228.26 1081.84C2186.14 1081.84 2152 1098.86 2152 1119.85C2152 1140.84 2186.14 1157.86 2228.26 1157.86C2251.87 1157.86 2271 1150.66 2271 1141.77C2271 1132.89 2251.87 1125.68 2228.26 1125.68C2186.14 1125.68 2152 1142.8 2152 1163.93C2152 1185.05 2186.14 1202.17 2228.26 1202.17C2251.87 1202.17 2271 1194.97 2271 1186.08C2271 1177.19 2251.87 1169.99 2228.26 1169.99C2186.14 1169.99 2152 1187.01 2152 1208C2152 1228.99 2186.14 1246.01 2228.26 1246.01C2251.87 1246.01 2271 1238.81 2271 1229.92C2271 1221.03 2251.87 1213.83 2228.26 1213.83C2186.14 1213.83 2152 1230.85 2152 1251.84C2152 1272.83 2186.14 1289.85 2228.26 1289.85C2251.87 1289.85 2271 1282.65 2271 1273.76C2271 1264.88 2251.87 1257.67 2228.26 1257.67C2186.14 1257.67 2152 1274.69 2152 1295.68C2152 1316.67 2186.14 1333.69 2228.26 1333.69C2251.87 1333.69 2271 1326.49 2271 1317.6C2271 1308.72 2251.87 1301.51 2228.26 1301.51C2186.14 1301.51 2152 1318.63 2152 1339.76C2152 1360.88 2186.14 1378 2228.26 1378" stroke="#A7F019" stroke-width="3" stroke-linecap="round" shape-rendering="crispEdges"/>
</g>
<g filter="url(#filter1_d_5_1003)">
<path d="M1361.66 643.468C1363.4 644.533 1362.17 648.437 1358.54 648.228C1355.12 648.374 1350.81 643.169 1352.76 636.812C1354.22 630.553 1362.74 625.284 1371.03 629.189C1379.31 632.463 1384.88 645.424 1379.47 656.781C1374.8 668.203 1359 674.881 1346.05 667.267C1332.92 660.588 1326.08 639.828 1334.95 623.499C1342.83 606.879 1365.89 598.85 1383.52 610.15C1401.49 620.249 1409.63 648.771 1397.28 670.094C1386.2 691.906 1355.85 701.299 1333.56 686.306C1310.73 672.782 1301.33 636.508 1317.13 610.186C1331.42 583.211 1369.05 572.406 1396.01 591.11C1423.68 608.042 1434.37 652.105 1415.1 683.406C1397.6 715.578 1352.69 727.736 1321.07 705.345C1288.56 684.99 1276.57 633.17 1299.32 596.873C1320.02 559.517 1372.22 545.983 1408.5 572.071C1445.88 595.842 1459.12 655.435 1432.91 696.719C1409 739.248 1349.53 754.18 1308.58 724.384C1266.36 697.195 1251.83 629.832 1281.51 583.561" stroke="#4831D4" stroke-width="3" stroke-linecap="round" shape-rendering="crispEdges"/>
</g>
<g filter="url(#filter2_d_5_1003)">
<path d="M1283.33 666.561C1285.07 667.626 1283.84 671.53 1280.21 671.32C1276.79 671.467 1272.49 666.262 1274.43 659.905C1275.9 653.646 1284.42 648.377 1292.7 652.281C1300.98 655.556 1306.55 668.517 1301.14 679.874C1296.47 691.296 1280.68 697.974 1267.72 690.359C1254.59 683.68 1247.75 662.921 1256.62 646.592C1264.5 629.972 1287.57 621.943 1305.19 633.242C1323.16 643.342 1331.3 671.863 1318.96 693.186C1307.87 714.999 1277.52 724.392 1255.23 709.398C1232.4 695.875 1223 659.601 1238.81 633.279C1253.1 606.304 1290.73 595.499 1317.68 614.203C1345.36 631.134 1356.04 675.198 1336.77 706.499C1319.27 738.671 1274.37 750.829 1242.74 728.437C1210.23 708.082 1198.24 656.262 1220.99 619.966C1241.69 582.61 1293.89 569.075 1330.17 595.164C1367.55 618.934 1380.79 678.528 1354.58 719.812C1330.68 762.341 1271.2 777.273 1230.26 747.476C1188.03 720.287 1173.5 652.925 1203.18 606.653" stroke="#4831D4" stroke-width="3" stroke-linecap="round" shape-rendering="crispEdges"/>
</g>
<g filter="url(#filter3_d_5_1003)">
<path d="M609 1251C622.355 1251 622.355 1269 635.709 1269C649.064 1269 649.064 1251 662.419 1251C675.774 1251 675.774 1269 689.097 1269C702.452 1269 702.452 1251 715.775 1251C729.13 1251 729.13 1269 742.453 1269C755.808 1269 755.808 1251 769.162 1251C782.517 1251 782.517 1269 795.872 1269C809.226 1269 809.226 1251 822.581 1251C835.936 1251 835.936 1269 849.291 1269C862.645 1269 862.645 1251 876 1251" stroke="#4831D4" stroke-width="3" stroke-miterlimit="10" stroke-linecap="round"/>
<path d="M609 1204C622.355 1204 622.355 1222 635.709 1222C649.064 1222 649.064 1204 662.419 1204C675.774 1204 675.774 1222 689.097 1222C702.452 1222 702.452 1204 715.775 1204C729.13 1204 729.13 1222 742.453 1222C755.808 1222 755.808 1204 769.162 1204C782.517 1204 782.517 1222 795.872 1222C809.226 1222 809.226 1204 822.581 1204C835.936 1204 835.936 1222 849.291 1222C862.645 1222 862.645 1204 876 1204" stroke="#4831D4" stroke-width="3" stroke-miterlimit="10" stroke-linecap="round"/>
<path d="M609 1157C622.355 1157 622.355 1175 635.709 1175C649.064 1175 649.064 1157 662.419 1157C675.774 1157 675.774 1175 689.097 1175C702.452 1175 702.452 1157 715.775 1157C729.13 1157 729.13 1175 742.453 1175C755.808 1175 755.808 1157 769.162 1157C782.517 1157 782.517 1175 795.872 1175C809.226 1175 809.226 1157 822.581 1157C835.936 1157 835.936 1175 849.291 1175C862.645 1175 862.645 1157 876 1157" stroke="#4831D4" stroke-width="3" stroke-miterlimit="10" stroke-linecap="round"/>
</g>
<g filter="url(#filter4_d_5_1003)">
<path d="M170.366 684.087C118.632 684.016 76.6639 640.428 76.5952 586.7C76.5402 543.747 110.051 508.943 151.409 509C184.502 509.046 211.368 536.948 211.412 571.318C211.447 598.836 190.018 621.091 163.522 621.054C142.325 621.025 125.143 603.181 125.116 581.166C125.093 563.578 138.824 549.318 155.759 549.341C169.322 549.36 180.325 560.787 180.342 574.873C180.357 586.15 171.586 595.26 160.728 595.245C152.056 595.233 145.006 587.91 144.994 578.904" stroke="#A7F019" stroke-width="3" stroke-linecap="round"/>
<path d="M170.584 685.01C170.515 738.739 128.546 782.327 76.8135 782.398C35.4567 782.455 1.94508 747.651 2.00007 704.698C2.04406 670.329 28.9098 642.426 62.0029 642.381C88.4996 642.344 109.928 664.6 109.892 692.118C109.864 714.133 92.6831 731.977 71.4857 732.006C54.5503 732.029 40.8202 717.769 40.8428 700.18C40.8607 686.094 51.8634 674.667 65.4266 674.649C76.2844 674.633 85.0559 683.743 85.0413 695.02C85.0298 704.026 77.9794 711.348 69.3079 711.36" stroke="#A7F019" stroke-width="3" stroke-linecap="round"/>
<path d="M170.416 684.659C170.485 630.93 212.454 587.343 264.186 587.271C305.543 587.214 339.055 622.018 339 664.971C338.956 699.341 312.09 727.243 278.997 727.288C252.5 727.325 231.072 705.07 231.108 677.551C231.136 655.537 248.317 637.693 269.514 637.664C286.45 637.641 300.18 651.9 300.157 669.489C300.139 683.576 289.137 695.002 275.573 695.021C264.716 695.036 255.944 685.927 255.959 674.649C255.97 665.643 263.021 658.321 271.692 658.309" stroke="#A7F019" stroke-width="3" stroke-linecap="round"/>
<path d="M171.472 683.913C223.206 683.984 265.174 727.572 265.243 781.301C265.298 824.253 231.787 859.057 190.43 859C157.336 858.954 130.471 831.052 130.427 796.682C130.391 769.164 151.82 746.909 178.317 746.946C199.513 746.975 216.695 764.819 216.723 786.834C216.745 804.423 203.015 818.682 186.079 818.659C172.516 818.64 161.514 807.213 161.496 793.127C161.481 781.85 170.252 772.74 181.111 772.755C189.782 772.767 196.833 780.09 196.844 789.096" stroke="#A7F019" stroke-width="3" stroke-linecap="round"/>
</g>
<defs>
<filter id="filter0_d_5_1003" x="2150.5" y="1036.5" width="131" height="351" filterUnits="userSpaceOnUse" color-interpolation-filters="sRGB">
<feFlood flood-opacity="0" result="BackgroundImageFix"/>
<feColorMatrix in="SourceAlpha" type="matrix" values="0 0 0 0 0 0 0 0 0 0 0 0 0 0 0 0 0 0 127 0" result="hardAlpha"/>
<feOffset dx="5" dy="4"/>
<feGaussianBlur stdDeviation="2"/>
<feComposite in2="hardAlpha" operator="out"/>
<feColorMatrix type="matrix" values="0 0 0 0 0 0 0 0 0 0 0 0 0 0 0 0 0 0 0.25 0"/>
<feBlend mode="normal" in2="BackgroundImageFix" result="effect1_dropShadow_5_1003"/>
<feBlend mode="normal" in="SourceGraphic" in2="effect1_dropShadow_5_1003" result="shape"/>
</filter>
<filter id="filter1_d_5_1003" x="1260.42" y="557.017" width="191.626" height="192.5" filterUnits="userSpaceOnUse" color-interpolation-filters="sRGB">
<feFlood flood-opacity="0" result="BackgroundImageFix"/>
<feColorMatrix in="SourceAlpha" type="matrix" values="0 0 0 0 0 0 0 0 0 0 0 0 0 0 0 0 0 0 127 0" result="hardAlpha"/>
<feOffset dy="4"/>
<feGaussianBlur stdDeviation="2"/>
<feComposite in2="hardAlpha" operator="out"/>
<feColorMatrix type="matrix" values="0 0 0 0 0 0 0 0 0 0 0 0 0 0 0 0 0 0 0.25 0"/>
<feBlend mode="normal" in2="BackgroundImageFix" result="effect1_dropShadow_5_1003"/>
<feBlend mode="normal" in="SourceGraphic" in2="effect1_dropShadow_5_1003" result="shape"/>
</filter>
<filter id="filter2_d_5_1003" x="1182.09" y="580.11" width="191.626" height="192.5" filterUnits="userSpaceOnUse" color-interpolation-filters="sRGB">
<feFlood flood-opacity="0" result="BackgroundImageFix"/>
<feColorMatrix in="SourceAlpha" type="matrix" values="0 0 0 0 0 0 0 0 0 0 0 0 0 0 0 0 0 0 127 0" result="hardAlpha"/>
<feOffset dy="4"/>
<feGaussianBlur stdDeviation="2"/>
<feComposite in2="hardAlpha" operator="out"/>
<feColorMatrix type="matrix" values="0 0 0 0 0 0 0 0 0 0 0 0 0 0 0 0 0 0 0.25 0"/>
<feBlend mode="normal" in2="BackgroundImageFix" result="effect1_dropShadow_5_1003"/>
<feBlend mode="normal" in="SourceGraphic" in2="effect1_dropShadow_5_1003" result="shape"/>
</filter>
<filter id="filter3_d_5_1003" x="607.5" y="1155.5" width="279" height="123" filterUnits="userSpaceOnUse" color-interpolation-filters="sRGB">
<feFlood flood-opacity="0" result="BackgroundImageFix"/>
<feColorMatrix in="SourceAlpha" type="matrix" values="0 0 0 0 0 0 0 0 0 0 0 0 0 0 0 0 0 0 127 0" result="hardAlpha"/>
<feOffset dx="5" dy="4"/>
<feGaussianBlur stdDeviation="2"/>
<feComposite in2="hardAlpha" operator="out"/>
<feColorMatrix type="matrix" values="0 0 0 0 0 0 0 0 0 0 0 0 0 0 0 0 0 0 0.25 0"/>
<feBlend mode="normal" in2="BackgroundImageFix" result="effect1_dropShadow_5_1003"/>
<feBlend mode="normal" in="SourceGraphic" in2="effect1_dropShadow_5_1003" result="shape"/>
</filter>
<filter id="filter4_d_5_1003" x="0.5" y="507.5" width="349" height="361" filterUnits="userSpaceOnUse" color-interpolation-filters="sRGB">
<feFlood flood-opacity="0" result="BackgroundImageFix"/>
<feColorMatrix in="SourceAlpha" type="matrix" values="0 0 0 0 0 0 0 0 0 0 0 0 0 0 0 0 0 0 127 0" result="hardAlpha"/>
<feOffset dx="5" dy="4"/>
<feGaussianBlur stdDeviation="2"/>
<feComposite in2="hardAlpha" operator="out"/>
<feColorMatrix type="matrix" values="0 0 0 0 0 0 0 0 0 0 0 0 0 0 0 0 0 0 0.25 0"/>
<feBlend mode="normal" in2="BackgroundImageFix" result="effect1_dropShadow_5_1003"/>
<feBlend mode="normal" in="SourceGraphic" in2="effect1_dropShadow_5_1003" result="shape"/>
</filter>
</defs>
</svg>
